HIERARCHY
ROOT Hips
{
	OFFSET 0.000000 0.000000 0.000000
	CHANNELS 6 Xposition Yposition Zposition Zrotation Yrotation Xrotation 
	JOINT LeftUpLeg_virtual
	{
		OFFSET 0.000000 0.000000 0.000000
		CHANNELS 3 Zrotation Yrotation Xrotation
		JOINT LeftUpLeg
		{
			OFFSET 8.479694 -4.795517 -0.379053
			CHANNELS 3 Zrotation Yrotation Xrotation
			JOINT LeftLeg
			{
				OFFSET 0.485052 -32.551468 0.112863
				CHANNELS 3 Zrotation Yrotation Xrotation
				JOINT LeftFoot
				{
					OFFSET 0.438033 -32.635670 -3.012641
					CHANNELS 3 Zrotation Yrotation Xrotation
					JOINT LeftToeBase
					{
						OFFSET 0.970169 -13.225353 11.864223
						CHANNELS 3 Zrotation Yrotation Xrotation
						End Site
						{
							OFFSET 0.000000 0.000000 0.000000
						}
					}
				}
			}
		}
	}
	JOINT RightUpLeg_virtual
	{
		OFFSET 0.000000 0.000000 0.000000
		CHANNELS 3 Zrotation Yrotation Xrotation
		JOINT RightUpLeg
		{
			OFFSET -8.479694 -4.795517 -0.379053
			CHANNELS 3 Zrotation Yrotation Xrotation
			JOINT RightLeg
			{
				OFFSET -0.484100 -32.551483 0.112903
				CHANNELS 3 Zrotation Yrotation Xrotation
				JOINT RightFoot
				{
					OFFSET -0.438985 -32.635651 -3.012681
					CHANNELS 3 Zrotation Yrotation Xrotation
					JOINT RightToeBase
					{
						OFFSET -0.970169 -13.225354 11.864223
						CHANNELS 3 Zrotation Yrotation Xrotation
						End Site
						{
							OFFSET 0.000000 0.000000 0.000000
						}
					}
				}
			}
		}
	}
	JOINT Spine_virtual
	{
		OFFSET 0.000000 0.000000 0.000000
		CHANNELS 3 Zrotation Yrotation Xrotation
		JOINT Spine
		{
			OFFSET 0.000000 7.722015 1.166203
			CHANNELS 3 Zrotation Yrotation Xrotation
			JOINT Spine1
			{
				OFFSET 0.000000 12.024086 0.248766
				CHANNELS 3 Zrotation Yrotation Xrotation
				JOINT Spine2
				{
					OFFSET -0.000000 11.503036 -0.491240
					CHANNELS 3 Zrotation Yrotation Xrotation
					JOINT Neck_virtual
					{
						OFFSET 0.000000 0.000000 0.000000
						CHANNELS 3 Zrotation Yrotation Xrotation
						JOINT Neck
						{
							OFFSET 0.000000 18.430687 -3.123054
							CHANNELS 3 Zrotation Yrotation Xrotation
							JOINT Head
							{
								OFFSET -0.000000 9.051071 1.034021
								CHANNELS 3 Zrotation Yrotation Xrotation
								End Site
								{
									OFFSET 0.000000 0.000000 0.000000
								}
							}
						}
					}
					JOINT LeftShoulder_virtual
					{
						OFFSET 0.000000 0.000000 0.000000
						CHANNELS 3 Zrotation Yrotation Xrotation
						JOINT LeftShoulder
						{
							OFFSET 6.197824 13.665230 -4.064723
							CHANNELS 3 Zrotation Yrotation Xrotation
							JOINT LeftArm
							{
								OFFSET 7.778132 -0.187073 -1.709282
								CHANNELS 3 Zrotation Yrotation Xrotation
								JOINT LeftForeArm
								{
									OFFSET 21.954697 0.000000 -2.041093
									CHANNELS 3 Zrotation Yrotation Xrotation
									JOINT LeftHand
									{
										OFFSET 22.992908 0.000000 -0.870901
										CHANNELS 3 Zrotation Yrotation Xrotation
										End Site
										{
											OFFSET 0.000000 0.000000 0.000000
										}
									}
								}
							}
						}
					}
					JOINT RightShoulder_virtual
					{
						OFFSET 0.000000 0.000000 0.000000
						CHANNELS 3 Zrotation Yrotation Xrotation
						JOINT RightShoulder
						{
							OFFSET -6.197824 13.665230 -4.064723
							CHANNELS 3 Zrotation Yrotation Xrotation
							JOINT RightArm
							{
								OFFSET -7.778132 -0.187073 -1.709282
								CHANNELS 3 Zrotation Yrotation Xrotation
								JOINT RightForeArm
								{
									OFFSET -21.954697 0.000000 -2.041093
									CHANNELS 3 Zrotation Yrotation Xrotation
									JOINT RightHand
									{
										OFFSET -22.992908 0.000000 -0.870901
										CHANNELS 3 Zrotation Yrotation Xrotation
										End Site
										{
											OFFSET 0.000000 0.000000 0.000000
										}
									}
								}
							}
						}
					}
				}
			}
		}
	}
}
MOTION
Frames: 9
Frame Time: 0.033333
12.383242 81.784927 -10.484762 -179.920488 -0.091927 179.988462 -2.851946 -0.560677 10.311068 4.685600 -3.741158 -22.948776 5.575693 3.989348 26.576271 -4.980515 -7.630317 -9.481049 0.000000 0.000000 0.000000 0.416255 -1.826862 10.347202 -6.160496 1.692616 -21.808051 -1.304001 5.265259 28.381014 10.104605 6.301142 -9.799867 0.000000 0.000000 0.000000 3.244903 1.566477 -1.698715 -6.622820 1.486570 2.107610 -0.650635 -2.329100 3.877660 0.016018 -0.013689 -0.032199 -1.271516 -1.057138 5.179334 1.510406 -2.611230 -17.391328 0.000000 0.000000 0.000000 0.275768 -0.209219 2.736985 16.407667 6.406158 -3.269437 -3.470515 -0.144424 -47.264708 -1.138570 -33.745950 -9.231874 0.000000 0.000000 0.000000 -3.770461 0.956947 2.037498 5.589814 -20.131586 -6.830911 6.464837 -6.574849 -44.058439 -1.446690 28.852164 -4.347001 0.000000 0.000000 0.000000 
12.392385 81.790741 -10.518853 -179.935227 -0.064342 179.995442 -2.517797 -0.479425 10.277028 4.404393 -4.004391 -23.041940 5.708403 4.139137 26.404921 -5.426430 -7.811149 -10.140407 0.000000 0.000000 0.000000 0.325705 -2.008477 10.375069 -6.177230 2.023425 -21.909539 -1.413879 5.065567 28.591706 9.893281 6.078540 -9.894104 0.000000 0.000000 0.000000 3.237272 1.552327 -1.703145 -6.623976 1.493099 2.110950 -0.644909 -2.328892 3.879467 0.032414 -0.011831 -0.037675 -1.285636 -1.102143 5.149932 1.515919 -2.601958 -17.424142 0.000000 0.000000 0.000000 0.266844 -0.200774 2.728093 16.374392 6.432474 -3.282987 -3.454448 -0.127844 -47.340338 -1.262669 -33.736169 -9.062206 0.000000 0.000000 0.000000 -3.789764 1.017322 2.014126 5.544789 -20.056418 -6.837052 6.500928 -6.592752 -43.809950 -1.543334 28.887831 -4.409780 0.000000 0.000000 0.000000 
12.398940 81.789101 -10.581721 179.947781 -0.156106 179.996767 -2.504056 -0.555209 10.286792 4.256594 -4.039546 -23.038153 5.756443 4.127796 26.411230 -5.487608 -7.786069 -10.115754 0.000000 0.000000 0.000000 0.183536 -1.955028 10.333984 -6.066947 1.766898 -21.829133 -1.458795 5.104807 28.595972 9.927467 6.113894 -9.995798 0.000000 0.000000 0.000000 3.185664 1.523532 -1.721957 -6.678046 1.495473 2.094793 -0.671803 -2.349613 3.883551 0.058251 -0.039138 -0.062720 -1.255838 -1.050328 5.213211 1.534050 -2.572189 -17.377265 0.000000 0.000000 0.000000 0.282955 -0.253328 2.730806 16.391899 6.429246 -3.262685 -3.548749 -0.012283 -47.378761 -1.304313 -33.792873 -9.211412 0.000000 0.000000 0.000000 -3.792444 1.016180 2.053977 5.575466 -20.049233 -6.761064 6.509986 -6.577770 -43.683260 -1.732650 28.880137 -4.623679 0.000000 0.000000 0.000000 
12.400354 81.790771 -10.653752 179.957084 -0.300537 179.980676 -2.748438 -0.599912 10.312585 4.655057 -4.013000 -23.052339 5.408679 4.014151 26.514463 -5.155860 -7.773247 -10.232598 0.000000 0.000000 0.000000 0.208487 -2.016305 10.360533 -6.023104 1.718170 -21.754754 -1.494409 5.065435 28.622029 9.934408 6.105896 -10.030957 0.000000 0.000000 0.000000 3.208734 1.477038 -1.733040 -6.679749 1.515509 2.069350 -0.687920 -2.345024 3.901967 -0.024154 -0.041372 -0.030274 -1.201126 -0.999618 5.187465 1.504818 -2.613647 -17.320779 0.000000 0.000000 0.000000 0.344999 -0.186423 2.764059 16.443600 6.439385 -3.230357 -3.641945 -0.021860 -47.481757 -1.213658 -33.848970 -9.160591 0.000000 0.000000 0.000000 -3.706738 0.931026 2.067979 5.419529 -20.086835 -6.847207 6.620016 -6.527357 -43.847933 -1.558725 28.956379 -4.380312 0.000000 0.000000 0.000000 
12.398171 81.792259 -10.728225 179.960349 -0.260980 179.916690 -2.712279 -0.495899 10.387020 4.661554 -4.069157 -23.007347 5.401324 4.125695 26.570715 -5.189538 -7.816444 -10.308161 0.000000 0.000000 0.000000 0.232991 -1.882857 10.433611 -6.026524 1.701597 -21.664190 -1.476502 5.061464 28.690394 9.866429 6.056323 -10.104058 0.000000 0.000000 0.000000 3.233601 1.497233 -1.755715 -6.685031 1.561448 2.072202 -0.678482 -2.315787 3.941255 -0.024391 -0.013135 -0.011103 -1.210465 -1.028119 5.140328 1.497983 -2.596153 -17.250975 0.000000 0.000000 0.000000 0.323875 -0.222122 2.738081 16.447362 6.591266 -3.237747 -3.762519 -0.036764 -47.506483 -1.224844 -33.879658 -9.093334 0.000000 0.000000 0.000000 -3.714243 0.927416 1.957293 5.554580 -20.002953 -6.820428 6.590589 -6.543666 -43.770325 -1.636046 28.920797 -4.334682 0.000000 0.000000 0.000000 
12.392545 81.792595 -10.800872 179.937563 -0.416378 179.977329 -2.840300 -0.487298 10.334052 4.811853 -3.969837 -23.041310 5.318673 3.998757 26.655551 -5.134821 -7.824751 -10.357618 0.000000 0.000000 0.000000 0.250136 -2.139892 10.449946 -6.117360 1.885039 -21.756692 -1.440264 5.087092 28.681450 9.856447 6.032340 -10.023887 0.000000 0.000000 0.000000 3.252012 1.416198 -1.825890 -6.705611 1.524971 2.017391 -0.680489 -2.351626 3.924602 -0.027486 -0.034449 -0.029916 -1.190528 -1.063304 5.189431 1.495336 -2.589424 -17.151486 0.000000 0.000000 0.000000 0.337937 -0.189790 2.766871 16.462713 6.644408 -3.128436 -3.885551 0.075698 -47.564847 -1.220718 -33.900049 -9.098779 0.000000 0.000000 0.000000 -3.679516 0.908686 2.060387 5.556127 -19.899080 -6.778398 6.655134 -6.407391 -43.786331 -1.696383 28.901225 -4.353966 0.000000 0.000000 0.000000 
12.380740 81.793732 -10.865699 179.948273 -0.536692 -179.991781 -2.794181 -0.559175 10.329801 4.761897 -4.005415 -23.014481 5.355896 4.065914 26.731530 -5.230682 -7.838056 -10.374104 0.000000 0.000000 0.000000 0.272795 -1.933823 10.351386 -6.072045 1.572903 -21.572695 -1.504026 5.050874 28.771929 9.820751 6.018848 -10.222719 0.000000 0.000000 0.000000 3.278608 1.302897 -1.884289 -6.721737 1.430233 1.979579 -0.669919 -2.278358 3.926420 -0.019440 0.039645 -0.034944 -1.209833 -1.056419 5.202071 1.472531 -2.546817 -17.023741 0.000000 0.000000 0.000000 0.336927 -0.267049 2.726786 16.466256 6.706065 -3.159057 -4.030063 0.231145 -47.478738 -1.237018 -33.877165 -9.002864 0.000000 0.000000 0.000000 -3.691951 0.885808 2.062491 5.600601 -19.793907 -6.792786 6.706477 -6.369413 -43.792154 -1.711747 28.873225 -4.309501 0.000000 0.000000 0.000000 
12.364841 81.791634 -10.917173 179.979719 -0.488447 -179.987369 -2.854583 -0.479842 10.306188 4.897511 -3.946990 -22.998762 5.227281 4.097216 26.814947 -5.165921 -7.892623 -10.469025 0.000000 0.000000 0.000000 0.340994 -1.885443 10.297830 -6.110232 1.616228 -21.562800 -1.468789 5.120209 28.853779 9.770227 5.983737 -10.287080 0.000000 0.000000 0.000000 3.327689 1.360767 -1.896827 -6.720712 1.559697 1.952414 -0.633098 -2.360935 3.932440 0.023242 0.005303 -0.040195 -1.259147 -1.111489 5.187880 1.444798 -2.525221 -16.911962 0.000000 0.000000 0.000000 0.292930 -0.297371 2.765500 16.477877 6.860715 -3.280959 -4.095755 0.207582 -47.498532 -1.277931 -33.786313 -8.910358 0.000000 0.000000 0.000000 -3.754990 0.872865 2.012588 5.667341 -19.658843 -6.736064 6.740545 -6.363075 -44.059566 -1.608263 28.924219 -4.190521 0.000000 0.000000 0.000000 
12.345732 81.788223 -10.962629 179.922441 -0.455005 179.983052 -2.778887 -0.530562 10.309876 4.708850 -4.018204 -22.945109 5.335220 4.279333 26.879709 -5.330750 -7.863308 -10.478676 0.000000 0.000000 0.000000 0.287135 -1.768800 10.285178 -6.120232 1.496638 -21.479505 -1.523873 5.070589 28.927033 9.816101 6.044671 -10.320942 0.000000 0.000000 0.000000 3.309264 1.332539 -1.888699 -6.764958 1.576999 1.944413 -0.650945 -2.386007 3.940690 -0.002764 -0.013855 -0.036570 -1.185798 -1.105107 5.166715 1.442399 -2.452102 -16.780277 0.000000 0.000000 0.000000 0.378655 -0.295322 2.669238 16.531078 6.858046 -3.141139 -4.228681 0.443246 -47.581072 -1.363643 -33.787532 -8.722781 0.000000 0.000000 0.000000 -3.632514 0.849671 2.037185 5.661709 -19.516465 -6.800949 6.876050 -6.218611 -43.859425 -1.769007 28.945826 -4.288099 0.000000 0.000000 0.000000 
